<svg width="16" height="16" viewBox="0 0 16 16" fill="none" xmlns="http://www.w3.org/2000/svg">
<path fill-rule="evenodd" clip-rule="evenodd" d="M8.00002 2.2439C8.93406 2.2089 9.86938 2.23496 10.8 2.3219C11.2514 2.31616 11.6998 2.3952 12.122 2.5549C12.7044 2.82638 13.1725 3.29447 13.444 3.8769C13.6042 4.29935 13.6836 4.74814 13.678 5.1999C13.678 5.8999 13.756 6.1329 13.756 7.9999C13.791 8.93394 13.765 9.86926 13.678 10.7999C13.6838 11.2513 13.6047 11.6997 13.445 12.1219C13.1735 12.7043 12.7054 13.1724 12.123 13.4439C11.7008 13.6036 11.2524 13.6826 10.801 13.6769C10.101 13.6769 9.86802 13.7549 8.00102 13.7549C7.06699 13.7899 6.13166 13.7638 5.20102 13.6769C4.74966 13.6826 4.30123 13.6036 3.87902 13.4439C3.2966 13.1724 2.8285 12.7043 2.55702 12.1219C2.39664 11.6998 2.31692 11.2514 2.32202 10.7999C2.32202 10.0999 2.24402 9.8669 2.24402 7.9999C2.20903 7.06586 2.23508 6.13054 2.32202 5.1999C2.31628 4.74854 2.39532 4.30011 2.55502 3.8779C2.69093 3.58935 2.87527 3.32621 3.10002 3.0999C3.28257 2.82802 3.56 2.63403 3.87802 2.5559C4.30016 2.39586 4.7486 2.31648 5.20002 2.3219C6.13066 2.23496 7.06599 2.2089 8.00002 2.2439ZM8.00002 0.999901C7.04 0.965724 6.07878 0.991775 5.12202 1.0779C4.53751 1.07653 3.95766 1.18192 3.41102 1.3889C2.93914 1.54296 2.51208 1.81005 2.16702 2.1669C1.81017 2.51195 1.54308 2.93902 1.38902 3.4109C1.14486 3.94655 1.03798 4.53459 1.07802 5.1219C0.991897 6.07866 0.965846 7.03988 1.00002 7.9999C0.965846 8.95992 0.991897 9.92114 1.07802 10.8779C1.07665 11.4624 1.18204 12.0423 1.38902 12.5889C1.54308 13.0608 1.81017 13.4878 2.16702 13.8329C2.51208 14.1898 2.93914 14.4568 3.41102 14.6109C3.95766 14.8179 4.53751 14.9233 5.12202 14.9219C6.07878 15.008 7.04 15.0341 8.00002 14.9999C8.96004 15.0341 9.92126 15.008 10.878 14.9219C11.4625 14.9233 12.0424 14.8179 12.589 14.6109C13.0575 14.4495 13.483 14.1835 13.8333 13.8332C14.1837 13.4829 14.4496 13.0573 14.611 12.5889C14.818 12.0423 14.9234 11.4624 14.922 10.8779C14.922 10.0999 15 9.8669 15 7.9999C15.0342 7.03988 15.0081 6.07866 14.922 5.1219C14.9234 4.53739 14.818 3.95754 14.611 3.4109C14.457 2.93902 14.1899 2.51195 13.833 2.1669C13.488 1.81005 13.0609 1.54296 12.589 1.3889C12.0424 1.18192 11.4625 1.07653 10.878 1.0779C9.92126 0.991775 8.96004 0.965724 8.00002 0.999901ZM8.00002 4.4219C7.52799 4.41406 7.0592 4.50125 6.62156 4.67828C6.18391 4.85531 5.78635 5.11858 5.45252 5.4524C5.1187 5.78622 4.85544 6.18379 4.6784 6.62143C4.50137 7.05908 4.41418 7.52787 4.42202 7.9999C4.42202 8.70756 4.63187 9.39933 5.02502 9.98773C5.41818 10.5761 5.97699 11.0347 6.63078 11.3055C7.28458 11.5764 8.00399 11.6472 8.69806 11.5092C9.39212 11.3711 10.0297 11.0303 10.5301 10.5299C11.0304 10.0295 11.3712 9.392 11.5093 8.69793C11.6473 8.00387 11.5765 7.28445 11.3057 6.63066C11.0349 5.97687 10.5763 5.41806 9.98785 5.0249C9.39945 4.63175 8.70768 4.4219 8.00002 4.4219ZM8.00002 10.3329C7.69212 10.3385 7.38625 10.2819 7.10069 10.1666C6.81512 10.0514 6.55572 9.87972 6.33796 9.66196C6.1202 9.44421 5.94856 9.1848 5.83329 8.89924C5.71801 8.61367 5.66146 8.3078 5.66702 7.9999C5.66146 7.692 5.71801 7.38613 5.83329 7.10057C5.94856 6.815 6.1202 6.55559 6.33796 6.33784C6.55572 6.12008 6.81512 5.94844 7.10069 5.83317C7.38625 5.71789 7.69212 5.66134 8.00002 5.6669C8.30793 5.66134 8.61379 5.71789 8.89936 5.83317C9.18492 5.94844 9.44433 6.12008 9.66209 6.33784C9.87984 6.55559 10.0515 6.815 10.1668 7.10057C10.282 7.38613 10.3386 7.692 10.333 7.9999C10.3386 8.3078 10.282 8.61367 10.1668 8.89924C10.0515 9.1848 9.87984 9.44421 9.66209 9.66196C9.44433 9.87972 9.18492 10.0514 8.89936 10.1666C8.61379 10.2819 8.30793 10.3385 8.00002 10.3329ZM11.733 3.4109C11.5637 3.4109 11.3982 3.4611 11.2575 3.55516C11.1167 3.64922 11.007 3.78291 10.9422 3.93932C10.8774 4.09574 10.8604 4.26785 10.8935 4.4339C10.9265 4.59995 11.008 4.75247 11.1277 4.87218C11.2475 4.9919 11.4 5.07342 11.566 5.10645C11.7321 5.13948 11.9042 5.12253 12.0606 5.05774C12.217 4.99295 12.3507 4.88324 12.4448 4.74247C12.5388 4.6017 12.589 4.4362 12.589 4.2669C12.5872 4.04044 12.4964 3.82378 12.3363 3.66364C12.1761 3.5035 11.9595 3.41273 11.733 3.4109Z" fill="#ED165F"/>
</svg>
